# xmcd
#
# Track frame offsets:
#	150
#	15867
#	28190
#	43322
#	55050
#	67905
#	83175
#	97987
#	113182
#	127265
#	140115
#	153592
#
# Disc length: 2227 seconds
#
# Revision: 0
# Processed by: cddbd v1.5.1PL0 Copyright (c) Steve Scherf et al.
# Submitted via: audiograbber 1.83.01
#
DISCID=a208b10c
DTITLE=WALDICK SORIANO - AMEI DEMAIS
DYEAR=1900
DGENRE=
TTITLE0=AMEI DEMAIS
TTITLE1=VOCÊ MUDOU DEMAIS
TTITLE2=EU VOU TER SEMPRE VOCÊ
TTITLE3=INFELIZ AMOR
TTITLE4=MEU PRIMEIRO AMOR
TTITLE5=PAIXÃO EM OVERDOSE
TTITLE6=TORTURA DE AMOR
TTITLE7=FUJO DE TI
TTITLE8=AQUILO QUE VOCÊ ME DEU
TTITLE9=NOSTALGIA
TTITLE10=TODO HOMEM CHORA
TTITLE11=VOCÊ SÓ PENSA EM VOCÊ
EXTD=
EXTT0=
EXTT1=
EXTT2=
EXTT3=
EXTT4=
EXTT5=
EXTT6=
EXTT7=
EXTT8=
EXTT9=
EXTT10=
EXTT11=
PLAYORDER=
